<?xml version="1.0" encoding="utf-8"?>
<!-- Svg Vector Icons : http://www.onlinewebfonts.com/icon -->
<!DOCTYPE svg PUBLIC "-//W3C//DTD SVG 1.1//EN" "http://www.w3.org/Graphics/SVG/1.1/DTD/svg11.dtd">
<svg version="1.1" xmlns="http://www.w3.org/2000/svg" xmlns:xlink="http://www.w3.org/1999/xlink" x="0px" y="0px" viewBox="0 0 1000 1000" enable-background="new 0 0 1000 1000" xml:space="preserve">
<metadata> Svg Vector Icons : http://www.onlinewebfonts.com/icon </metadata>
<g><path d="M44,399.4L399.4,762c2.1,2.6,2.9,5.8,5.3,8.2c46.1,47,121.5,47.7,168.4,1.7l381.1-373.6c47-46.1,47.7-121.4,1.7-168.4c-23.3-23.8-54.2-35.7-85.1-35.7c-30.1,0-60.2,11.3-83.4,34L492.9,517L214.2,232.7c-23.3-23.8-54.2-35.7-85.1-35.7c-30.1,0-60.2,11.3-83.4,34C-1.2,277-2,352.4,44,399.4z"/></g>
</svg>