<?xml version="1.0" encoding="utf-8"?>
<!-- Svg Vector Icons : http://www.onlinewebfonts.com/icon -->
<!DOCTYPE svg PUBLIC "-//W3C//DTD SVG 1.1//EN" "http://www.w3.org/Graphics/SVG/1.1/DTD/svg11.dtd">
<svg version="1.1" xmlns="http://www.w3.org/2000/svg" xmlns:xlink="http://www.w3.org/1999/xlink" x="0px" y="0px" viewBox="0 0 1000 1000" enable-background="new 0 0 1000 1000" xml:space="preserve">
<metadata> Svg Vector Icons : http://www.onlinewebfonts.com/icon </metadata>
<g><path d="M966.1,850.6L731.7,616.1c-2.7-2.7-5.7-4.8-8.6-7c39.6-60.8,62.7-133.2,62.7-211.1C785.8,183.6,612.2,10,397.9,10C183.7,10,10,183.6,10,397.9c0,214.3,173.7,387.9,387.9,387.9c78,0,150.5-23.2,211.3-62.8c2.2,3,4.3,5.9,6.9,8.6l234.5,234.5c16,16,36.8,23.9,57.7,23.9c20.9,0,41.8-8,57.7-23.9C998,934.2,998,882.5,966.1,850.6 M397.9,663.3c-146.3,0-265.4-119.1-265.4-265.4c0-146.3,119.1-265.4,265.4-265.4c146.3,0,265.4,119.1,265.4,265.4C663.3,544.2,544.2,663.3,397.9,663.3"/></g>
</svg>